<?xml version="1.0" encoding="UTF-8" standalone="no"?>
<!-- Created with Inkscape (http://www.inkscape.org/) -->

<svg
   xmlns:dc="http://purl.org/dc/elements/1.1/"
   xmlns:cc="http://creativecommons.org/ns#"
   xmlns:rdf="http://www.w3.org/1999/02/22-rdf-syntax-ns#"
   xmlns:svg="http://www.w3.org/2000/svg"
   xmlns="http://www.w3.org/2000/svg"
   xmlns:xlink="http://www.w3.org/1999/xlink"
   xmlns:sodipodi="http://sodipodi.sourceforge.net/DTD/sodipodi-0.dtd"
   xmlns:inkscape="http://www.inkscape.org/namespaces/inkscape"
   width="744.09448819"
   height="1052.3622047"
   id="svg3828"
   version="1.1"
   inkscape:version="0.48.5 r10040"
   sodipodi:docname="vacuum_dijets.svg">
  <defs
     id="defs3830">
    <inkscape:path-effect
       effect="spiro"
       id="path-effect7906"
       is_visible="true" />
    <inkscape:path-effect
       effect="spiro"
       id="path-effect7890"
       is_visible="true" />
    <inkscape:path-effect
       effect="spiro"
       id="path-effect7886"
       is_visible="true" />
    <inkscape:path-effect
       effect="spiro"
       id="path-effect7882"
       is_visible="true" />
    <marker
       inkscape:stockid="Arrow1Mstart"
       orient="auto"
       refY="0.0"
       refX="0.0"
       id="Arrow1Mstart"
       style="overflow:visible">
      <path
         id="path3926"
         d="M 0.0,0.0 L 5.0,-5.0 L -12.5,0.0 L 5.0,5.0 L 0.0,0.0 z "
         style="fill-rule:evenodd;stroke:#000000;stroke-width:1.0pt"
         transform="scale(0.4) translate(10,0)" />
    </marker>
    <marker
       inkscape:stockid="Arrow2Lstart"
       orient="auto"
       refY="0.0"
       refX="0.0"
       id="Arrow2Lstart"
       style="overflow:visible">
      <path
         id="path3938"
         style="fill-rule:evenodd;stroke-width:0.62500000;stroke-linejoin:round"
         d="M 8.7185878,4.0337352 L -2.2072895,0.016013256 L 8.7185884,-4.0017078 C 6.9730900,-1.6296469 6.9831476,1.6157441 8.7185878,4.0337352 z "
         transform="scale(1.1) translate(1,0)" />
    </marker>
    <marker
       inkscape:stockid="Arrow1Lend"
       orient="auto"
       refY="0.0"
       refX="0.0"
       id="Arrow1Lend"
       style="overflow:visible;">
      <path
         id="path3923"
         d="M 0.0,0.0 L 5.0,-5.0 L -12.5,0.0 L 5.0,5.0 L 0.0,0.0 z "
         style="fill-rule:evenodd;stroke:#000000;stroke-width:1.0pt;"
         transform="scale(0.8) rotate(180) translate(12.5,0)" />
    </marker>
    <inkscape:path-effect
       effect="spiro"
       id="path-effect6813"
       is_visible="true" />
    <inkscape:path-effect
       effect="spiro"
       id="path-effect6809"
       is_visible="true" />
    <marker
       inkscape:stockid="DotM"
       orient="auto"
       refY="0.0"
       refX="0.0"
       id="DotM"
       style="overflow:visible">
      <path
         id="path4453"
         d="M -2.5,-1.0 C -2.5,1.7600000 -4.7400000,4.0 -7.5,4.0 C -10.260000,4.0 -12.5,1.7600000 -12.5,-1.0 C -12.5,-3.7600000 -10.260000,-6.0 -7.5,-6.0 C -4.7400000,-6.0 -2.5,-3.7600000 -2.5,-1.0 z "
         style="fill-rule:evenodd;stroke:#000000;stroke-width:1.0pt"
         transform="scale(0.4) translate(7.4, 1)" />
    </marker>
    <marker
       inkscape:stockid="Arrow1Lstart"
       orient="auto"
       refY="0.0"
       refX="0.0"
       id="Arrow1Lstart"
       style="overflow:visible">
      <path
         id="path4389"
         d="M 0.0,0.0 L 5.0,-5.0 L -12.5,0.0 L 5.0,5.0 L 0.0,0.0 z "
         style="fill-rule:evenodd;stroke:#000000;stroke-width:1.0pt"
         transform="scale(0.8) translate(12.5,0)" />
    </marker>
    <inkscape:path-effect
       effect="spiro"
       id="path-effect4857"
       is_visible="true" />
    <inkscape:path-effect
       effect="spiro"
       id="path-effect4853"
       is_visible="true" />
    <inkscape:path-effect
       effect="spiro"
       id="path-effect4849"
       is_visible="true" />
    <inkscape:path-effect
       effect="spiro"
       id="path-effect4845"
       is_visible="true" />
    <marker
       inkscape:stockid="Arrow2Lend"
       orient="auto"
       refY="0.0"
       refX="0.0"
       id="Arrow2Lend"
       style="overflow:visible;">
      <path
         id="path4410"
         style="fill-rule:evenodd;stroke-width:0.62500000;stroke-linejoin:round;"
         d="M 8.7185878,4.0337352 L -2.2072895,0.016013256 L 8.7185884,-4.0017078 C 6.9730900,-1.6296469 6.9831476,1.6157441 8.7185878,4.0337352 z "
         transform="scale(1.1) rotate(180) translate(1,0)" />
    </marker>
  </defs>
  <sodipodi:namedview
     id="base"
     pagecolor="#ffffff"
     bordercolor="#666666"
     borderopacity="1.0"
     inkscape:pageopacity="0.0"
     inkscape:pageshadow="2"
     inkscape:zoom="0.35"
     inkscape:cx="292.12133"
     inkscape:cy="571.64921"
     inkscape:document-units="px"
     inkscape:current-layer="layer2"
     showgrid="false"
     inkscape:object-paths="true"
     inkscape:snap-nodes="false"
     inkscape:window-width="1263"
     inkscape:window-height="628"
     inkscape:window-x="176"
     inkscape:window-y="20"
     inkscape:window-maximized="0" />
  <metadata
     id="metadata3833">
    <rdf:RDF>
      <cc:Work
         rdf:about="">
        <dc:format>image/svg+xml</dc:format>
        <dc:type
           rdf:resource="http://purl.org/dc/dcmitype/StillImage" />
        <dc:title />
      </cc:Work>
    </rdf:RDF>
  </metadata>
  <g
     inkscape:label="Layer 1"
     inkscape:groupmode="layer"
     id="layer1" />
  <g
     inkscape:groupmode="layer"
     id="layer2"
     inkscape:label="Jets">
    <path
       style="fill:none;stroke:#000000;stroke-width:1px;stroke-linecap:butt;stroke-linejoin:miter;stroke-opacity:1"
       d="M 8.5714286,563.79075 z"
       id="path4829"
       inkscape:connector-curvature="0" />
    <flowRoot
       xml:space="preserve"
       id="flowRoot6759"><flowRegion
         id="flowRegion6761"><rect
           id="rect6763"
           width="74.751289"
           height="70.710678"
           x="630.33521"
           y="145.24519" /></flowRegion><flowPara
         id="flowPara6765" /></flowRoot>    <text
       xml:space="preserve"
       x="652.55853"
       y="173.52946"
       id="text6767"
       style="font-size:65.00091553%;baseline-shift:sub"><tspan
         sodipodi:role="line"
         id="tspan6769"
         x="652.55853"
         y="173.52946" /></text>
    <text
       xml:space="preserve"
       style="font-size:40px;font-style:normal;font-weight:normal;line-height:125%;letter-spacing:0px;word-spacing:0px;fill:#000000;fill-opacity:1;stroke:none;font-family:Sans"
       x="543.4621"
       y="527.08289"
       id="text6779"
       sodipodi:linespacing="125%"><tspan
         sodipodi:role="line"
         id="tspan6781"
         x="543.4621"
         y="527.08289" /></text>
    <g
       id="g3072">
      <path
         inkscape:connector-curvature="0"
         id="path3875"
         d="M 340.10394,326.80936 549.26613,125.35374"
         style="fill:none;stroke:#000000;stroke-width:4;stroke-linecap:butt;stroke-linejoin:miter;stroke-miterlimit:4;stroke-opacity:1;stroke-dasharray:none;marker-end:url(#Arrow2Lend);marker-start:url(#DotM)" />
      <path
         sodipodi:nodetypes="ccc"
         inkscape:connector-curvature="0"
         id="path4833"
         d="m 488.57143,109.50504 -97.14286,165.71429 169.3985,-81.32857"
         style="fill:#000000;fill-opacity:0;stroke:#000000;stroke-width:1px;stroke-linecap:butt;stroke-linejoin:miter;stroke-opacity:1" />
      <path
         sodipodi:type="arc"
         style="fill:none;stroke:#000000;stroke-width:1;stroke-miterlimit:4;stroke-opacity:1;stroke-dasharray:none"
         id="use4867"
         sodipodi:cx="139.40105"
         sodipodi:cy="577.59052"
         sodipodi:rx="90.913727"
         sodipodi:ry="62.629459"
         d="m 230.31477,577.59052 a 90.913727,62.629459 0 1 1 -181.82745,0 90.913727,62.629459 0 1 1 181.82745,0 z"
         transform="matrix(0.44652381,0.41800855,-0.39712652,0.44608087,695.02639,-165.90716)" />
      <path
         style="fill:#000000;fill-opacity:0;stroke:#000000;stroke-width:0.9677636;stroke-miterlimit:4;stroke-opacity:1;stroke-dasharray:none"
         id="use6847"
         d="m 427.87396,240.39063 c 2.11793,-0.34021 4.34144,-0.41295 6.49604,-0.48564 2.90697,-0.045 5.83143,-0.0874 8.61879,0.18814 1.23472,0.14674 2.87839,0.30857 2.58276,1.08192 -0.66216,0.71843 -2.1283,0.93105 -3.55394,1.09754 -1.79282,0.15328 -3.31137,-0.11081 -4.33731,-0.74466 -1.06801,-1.12598 -0.0888,-2.40702 1.0493,-3.54948 1.5362,-1.38078 3.8857,-2.48705 6.28416,-3.54149 2.30419,-0.90652 4.46443,-1.36079 7.26568,-1.32979 2.32759,0.11977 4.48048,0.52176 6.28445,1.16204 1.05397,0.42226 1.65986,0.74017 0.93196,1.43899 -1.02911,0.56537 -2.37652,0.35164 -3.50005,0.14217 -1.65162,-0.30639 -2.88369,-0.8859 -4.0463,-1.4893 -1.33497,-0.66809 -2.086,-1.20217 -1.67443,-2.21673 1.34695,-1.43496 4.21049,-2.463 6.74149,-3.42438 3.07638,-1.108 6.40231,-2.00279 10.03446,-2.43523 2.83447,-0.15615 5.00199,0.60562 6.8408,1.44217 1.27178,0.76427 1.61999,1.42876 0.8075,2.42747 -0.83374,0.74005 -1.90694,1.06157 -3.51477,0.90104 -2.23229,-0.4419 -2.30749,-1.26032 -1.90082,-2.36457 1.80927,-2.10286 5.72797,-3.63747 9.23406,-5.13116 2.78234,-1.02437 5.76221,-2.56231 8.95881,-3.26251 0.41906,-0.0917 0.86842,-0.1321 1.30294,-0.19789 3.39187,-0.18312 3.53004,1.05918 3.33536,2.36056 -0.4819,1.18945 -1.22706,2.47609 -3.24459,3.35087 -1.56372,0.40348 -2.71973,-0.0513 -3.32491,-0.66838 -0.34386,-0.86365 0.70887,-1.73789 1.51629,-2.54135 0,0 -0.0137,8.5e-4 -0.0137,8.5e-4 l 0,0 c -0.80757,0.80371 -1.86027,1.67808 -1.5163,2.54195 0.61079,0.62309 1.77739,1.07349 3.35321,0.66693 2.01737,-0.87513 2.76276,-2.1618 3.24461,-3.35143 0.13606,-0.90906 0.25383,-2.24917 -2.14607,-2.39662 -0.39475,-0.0242 -0.81166,0.0245 -1.21738,0.0368 -0.43428,0.0661 -0.88402,0.10621 -1.30284,0.19819 -3.19659,0.70059 -6.1763,2.23808 -8.95864,3.26279 -3.50623,1.49382 -7.42519,3.02855 -9.2341,5.13165 -0.40667,1.10454 -0.33141,1.92321 1.90096,2.36552 1.52065,0.15226 2.7811,-0.18098 3.54285,-0.90351 0.81246,-0.99892 0.46436,-1.66372 -0.80753,-2.42821 -1.84711,-0.84046 -4.02096,-1.60237 -6.86899,-1.44085 -3.63212,0.43264 -6.95817,1.32745 -10.03451,2.43554 -2.53108,0.96159 -5.39511,1.98961 -6.74154,3.42493 -0.41152,1.01472 0.33907,1.54904 1.67447,2.21731 1.16268,0.60347 2.39469,1.18307 4.04635,1.48955 1.1292,0.21065 2.49469,0.42335 3.52827,-0.14436 0.72776,-0.69913 0.12249,-1.01739 -0.93203,-1.43989 -1.80388,-0.64044 -3.95692,-1.04248 -6.28458,-1.16242 -2.8161,-0.0266 -4.97619,0.41791 -7.29379,1.33192 -2.39842,1.05461 -4.74805,2.16091 -6.28418,3.54179 -1.13828,1.14274 -2.11722,2.42396 -1.04925,3.55021 1.03322,0.63868 2.5616,0.89926 4.36548,0.74342 1.4261,-0.16665 2.89229,-0.37963 3.5539,-1.09851 0.29546,-0.77377 -1.34679,-0.93605 -2.58286,-1.08284 -2.78739,-0.2758 -5.7119,-0.23329 -8.6189,-0.18834 -2.16389,0.0729 -4.39701,0.14618 -6.52408,0.48759 0,0 0.0127,-8.6e-4 0.0127,-8.6e-4 z"
         inkscape:connector-curvature="0" />
      <path
         style="fill:#000000;fill-opacity:0;stroke:#000000;stroke-width:0.9677636;stroke-miterlimit:4;stroke-opacity:1;stroke-dasharray:none"
         id="use6849"
         d="m 466.537,201.82336 c 2.11793,-0.34021 4.34144,-0.41295 6.49604,-0.48564 2.90697,-0.045 5.83143,-0.0874 8.61879,0.18814 1.23472,0.14674 2.87839,0.30857 2.58276,1.08192 -0.66216,0.71843 -2.1283,0.93105 -3.55394,1.09754 -1.79282,0.15328 -3.31137,-0.11081 -4.33731,-0.74466 -1.06801,-1.12598 -0.0888,-2.40702 1.0493,-3.54948 1.5362,-1.38078 3.8857,-2.48705 6.28416,-3.54149 2.30419,-0.90652 4.46443,-1.36079 7.26568,-1.32979 2.32759,0.11977 4.48048,0.52176 6.28445,1.16204 1.05397,0.42226 1.65986,0.74017 0.93196,1.43899 -1.02911,0.56537 -2.37652,0.35164 -3.50005,0.14217 -1.65162,-0.30639 -2.88369,-0.8859 -4.0463,-1.4893 -1.33497,-0.66809 -2.086,-1.20217 -1.67443,-2.21673 1.34695,-1.43496 4.21049,-2.463 6.74149,-3.42438 3.07638,-1.108 6.40231,-2.00279 10.03446,-2.43523 2.83447,-0.15615 5.00199,0.60562 6.8408,1.44217 1.27178,0.76427 1.61999,1.42876 0.8075,2.42747 -0.83374,0.74005 -1.90694,1.06157 -3.51477,0.90104 -2.23229,-0.4419 -2.30749,-1.26032 -1.90082,-2.36457 1.80927,-2.10286 5.72797,-3.63747 9.23406,-5.13116 2.78234,-1.02437 5.76221,-2.56231 8.95881,-3.26251 0.41906,-0.0917 0.86842,-0.1321 1.30294,-0.19789 3.39187,-0.18312 3.53004,1.05918 3.33536,2.36056 -0.4819,1.18945 -1.22706,2.47609 -3.24459,3.35087 -1.56372,0.40348 -2.71973,-0.0513 -3.32491,-0.66838 -0.34386,-0.86365 0.70887,-1.73789 1.51629,-2.54135 0,0 -0.0137,8.5e-4 -0.0137,8.5e-4 l 0,0 c -0.80757,0.80371 -1.86027,1.67808 -1.5163,2.54195 0.61079,0.62309 1.77739,1.07349 3.35321,0.66693 2.01737,-0.87513 2.76276,-2.1618 3.24461,-3.35143 0.13606,-0.90906 0.25383,-2.24917 -2.14607,-2.39662 -0.39475,-0.0242 -0.81166,0.0245 -1.21738,0.0368 -0.43428,0.0661 -0.88402,0.10621 -1.30284,0.19819 -3.19659,0.70059 -6.1763,2.23808 -8.95864,3.26279 -3.50623,1.49382 -7.42519,3.02855 -9.2341,5.13165 -0.40667,1.10454 -0.33141,1.92321 1.90096,2.36552 1.52065,0.15226 2.7811,-0.18098 3.54285,-0.90351 0.81246,-0.99892 0.46436,-1.66372 -0.80753,-2.42821 -1.84711,-0.84046 -4.02096,-1.60237 -6.86899,-1.44085 -3.63212,0.43264 -6.95817,1.32745 -10.03451,2.43554 -2.53108,0.96159 -5.39511,1.98961 -6.74154,3.42493 -0.41152,1.01472 0.33907,1.54904 1.67447,2.21731 1.16268,0.60347 2.39469,1.18307 4.04635,1.48955 1.1292,0.21065 2.49469,0.42335 3.52827,-0.14436 0.72776,-0.69913 0.12249,-1.01739 -0.93203,-1.43989 -1.80388,-0.64044 -3.95692,-1.04248 -6.28458,-1.16242 -2.8161,-0.0266 -4.97619,0.41791 -7.29379,1.33192 -2.39842,1.05461 -4.74805,2.16091 -6.28418,3.54179 -1.13828,1.14274 -2.11722,2.42396 -1.04925,3.55021 1.03322,0.63868 2.5616,0.89926 4.36548,0.74342 1.4261,-0.16665 2.89229,-0.37963 3.5539,-1.09851 0.29546,-0.77377 -1.34679,-0.93605 -2.58286,-1.08284 -2.78739,-0.2758 -5.7119,-0.23329 -8.6189,-0.18834 -2.16389,0.0729 -4.39701,0.14618 -6.52408,0.48759 0,0 0.0127,-8.6e-4 0.0127,-8.6e-4 z"
         inkscape:connector-curvature="0" />
      <path
         style="fill:#000000;fill-opacity:0;stroke:#000000;stroke-width:0.9677636;stroke-miterlimit:4;stroke-opacity:1;stroke-dasharray:none"
         id="use6851"
         d="m 467.72781,162.73611 c -0.9024,1.94603 -2.08558,3.83001 -3.23026,5.65684 -1.58839,2.43506 -3.18872,4.88316 -4.97595,7.0398 -0.81215,0.94153 -1.86552,2.21364 -2.3413,1.53607 -0.22528,-0.95071 0.41839,-2.28505 1.07764,-3.56002 0.87555,-1.57198 1.94372,-2.68317 3.04293,-3.17921 1.53072,-0.25569 2.04509,1.27249 2.35573,2.85489 0.28556,2.04571 -0.11127,4.61213 -0.57845,7.19015 -0.53709,2.41715 -1.36859,4.46204 -2.96087,6.76696 -1.40097,1.8626 -2.93821,3.42255 -4.47786,4.55998 -0.93947,0.6376 -1.54186,0.9621 -1.71412,-0.0322 0.10683,-1.16931 1.03754,-2.16679 1.83952,-2.98106 1.17765,-1.19786 2.34709,-1.89516 3.49749,-2.52153 1.30042,-0.73307 2.16318,-1.057 2.77409,-0.14842 0.43632,1.91912 -0.31284,4.86793 -0.93129,7.50378 -0.8019,3.16998 -1.92011,6.42759 -3.59286,9.6805 -1.45571,2.43712 -3.29938,3.80799 -5.02123,4.86454 -1.34481,0.6269 -2.09041,0.54396 -2.46397,-0.68812 -0.14724,-1.10504 0.18639,-2.17454 1.21864,-3.41766 1.61472,-1.60345 2.33525,-1.2081 3.02326,-0.25343 0.73146,2.6759 -0.18784,6.78274 -0.91031,10.52464 -0.70679,2.87944 -1.0983,6.20985 -2.3055,9.25143 -0.15834,0.39868 -0.37615,0.7938 -0.56461,1.19081 -1.74506,2.91429 -2.85221,2.33408 -3.82218,1.44491 -0.71657,-1.06469 -1.36647,-2.40197 -0.96338,-4.56373 0.54001,-1.52197 1.56351,-2.22598 2.41351,-2.38258 0.90827,0.19793 1.04429,1.55956 1.25882,2.67824 0,0 0.007,-0.0118 0.007,-0.0118 l 0,0 c -0.21465,-1.11895 -0.3508,-2.48063 -1.25931,-2.67859 -0.85813,0.15789 -1.88392,0.87313 -2.42814,2.40686 -0.40271,2.16182 0.24709,3.49931 0.96383,4.56405 0.67752,0.62118 1.72262,1.46826 3.18698,-0.43881 0.24082,-0.31372 0.4336,-0.68657 0.6503,-1.0298 0.18807,-0.39698 0.40633,-0.79225 0.5643,-1.19089 1.20687,-3.04179 1.59866,-6.37181 2.30517,-9.25145 0.72245,-3.74208 1.64179,-7.84921 0.90993,-10.52494 -0.68824,-0.95484 -1.40901,-1.35028 -3.02412,0.25301 -0.97664,1.17547 -1.40528,2.40676 -1.2323,3.44232 0.37375,1.23217 1.11955,1.31538 2.46461,0.68851 1.72972,-1.06125 3.57705,-2.43729 5.03589,-4.88865 1.67257,-3.25299 2.79083,-6.51072 3.59264,-9.68071 0.61832,-2.63604 1.36777,-5.58525 0.93086,-7.50413 -0.61107,-0.90863 -1.47379,-0.5852 -2.7746,0.14813 -1.15049,0.62638 -2.31998,1.32359 -3.49773,2.52143 -0.80612,0.8183 -1.74609,1.83135 -1.85347,3.00568 0.17258,0.9943 0.77492,0.67051 1.7149,0.0326 1.53973,-1.13726 3.07709,-2.69731 4.47825,-4.55987 1.59693,-2.31969 2.43644,-4.359 2.97482,-6.79146 0.46702,-2.57808 0.8639,-5.14463 0.57821,-7.19033 -0.31077,-1.58271 -0.82544,-3.11076 -2.35636,-2.85526 -1.10729,0.49937 -2.17804,1.62068 -3.05765,3.20326 -0.65938,1.27544 -1.30278,2.61002 -1.07682,3.56053 0.47622,0.67766 1.52917,-0.59302 2.34212,-1.53564 1.78746,-2.15652 3.38773,-4.60472 4.97618,-7.03978 1.1497,-1.83464 2.3378,-3.72689 3.24432,-5.68117 0,0 -0.006,0.011 -0.006,0.011 z"
         inkscape:connector-curvature="0" />
      <path
         style="fill:#000000;fill-opacity:0;stroke:#000000;stroke-width:0.9677636;stroke-miterlimit:4;stroke-opacity:1;stroke-dasharray:none"
         id="use6853"
         d="m 492.47825,125.56704 c -0.71719,2.02163 -1.71973,4.00763 -2.68925,5.93315 -1.35466,2.57243 -2.71998,5.15897 -4.29854,7.47272 -0.72091,1.01309 -1.6512,2.37779 -2.18803,1.74749 -0.31286,-0.92559 0.20371,-2.3141 0.74133,-3.64493 0.72531,-1.64671 1.68532,-2.85257 2.73354,-3.44885 1.50025,-0.39717 2.15474,1.07645 2.61143,2.62304 0.47489,2.01021 0.31885,4.60243 0.0938,7.21276 -0.30959,2.45667 -0.94698,4.57013 -2.31762,7.01335 -1.22138,1.98501 -2.60661,3.68138 -4.03361,4.95728 -0.876,0.72235 -1.44554,1.10155 -1.70967,0.12768 -0.003,-1.17419 0.83118,-2.25403 1.55382,-3.13947 1.06095,-1.30234 2.16035,-2.10556 3.2474,-2.83636 1.22648,-0.85102 2.05531,-1.25391 2.7482,-0.4062 0.6132,1.87013 0.14199,4.87591 -0.22824,7.55791 -0.50312,3.23089 -1.31301,6.57851 -2.67547,9.9731 -1.22234,2.56212 -2.9303,4.09877 -4.54624,5.31112 -1.28057,0.74945 -2.03065,0.73633 -2.51736,-0.4556 -0.24954,-1.08651 -0.017,-2.18244 0.89497,-3.51632 1.45834,-1.74689 2.21257,-1.42038 2.98651,-0.53394 0.97755,2.59612 0.44482,6.77074 0.074,10.56367 -0.43548,2.93276 -0.51505,6.28516 -1.43367,9.42596 -0.12051,0.41171 -0.30056,0.82539 -0.45122,1.23823 -1.466,3.06418 -2.62238,2.58963 -3.67097,1.79468 -0.81262,-0.99331 -1.58428,-2.26424 -1.38432,-4.45414 0.39589,-1.56566 1.34936,-2.36195 2.18108,-2.59705 0.92276,0.11246 1.18503,1.4555 1.50283,2.54933 0,0 0.006,-0.0124 0.006,-0.0124 l 0,0 c -0.31795,-1.09408 -0.58035,-2.43716 -1.50336,-2.54963 -0.83968,0.23715 -1.79439,1.04483 -2.19337,2.62258 -0.19958,2.18993 0.57199,3.46108 1.3848,4.45443 0.73244,0.55536 1.8519,1.3014 3.13224,-0.73379 0.21055,-0.33478 0.36776,-0.72398 0.55155,-1.08589 0.15027,-0.41278 0.33076,-0.82666 0.45091,-1.23829 0.91827,-3.14098 0.99815,-6.49302 1.43334,-9.42595 0.37072,-3.79311 0.90347,-7.96802 -0.0745,-10.56394 -0.7742,-0.88657 -1.52867,-1.21315 -2.98741,0.53362 -0.86289,1.26134 -1.17496,2.52719 -0.90627,3.54214 0.4869,1.192 1.23721,1.20537 2.51802,0.45593 1.62335,-1.21776 3.33447,-2.7599 4.55861,-5.3365 1.36227,-3.39466 2.1722,-6.74239 2.67522,-9.97329 0.37007,-2.68217 0.84154,-5.68837 0.22778,-7.55821 -0.69306,-0.84775 -1.52189,-0.44536 -2.74873,0.40595 -1.08715,0.73083 -2.1866,1.53395 -3.24764,2.83629 -0.7264,0.88984 -1.56791,1.98605 -1.56543,3.16527 0.26446,0.9739 0.83401,0.59541 1.71048,-0.1273 1.4271,-1.27575 2.81245,-2.97222 4.03401,-4.95721 1.3739,-2.45836 2.01979,-4.56701 2.32924,-7.03904 0.22483,-2.61038 0.3809,-5.20273 -0.0941,-7.21293 -0.45685,-1.54687 -1.11163,-3.02034 -2.61209,-2.62334 -1.05596,0.60035 -2.0176,1.81653 -2.74597,3.47416 -0.5377,1.33132 -1.05397,2.72004 -0.74046,3.64536 0.53729,0.63035 1.46728,-0.73289 2.18889,-1.74713 1.5788,-2.31366 2.94405,-4.90029 4.29876,-7.47272 0.9738,-1.93377 1.98047,-3.92847 2.70099,-5.9587 0,0 -0.005,0.0116 -0.005,0.0116 z"
         inkscape:connector-curvature="0" />
      <use
         id="use3042"
         xlink:href="#path3875"
         y="0"
         x="0" />
      <use
         id="use3044"
         xlink:href="#path4833"
         y="0"
         x="0" />
      <use
         id="use3046"
         xlink:href="#use4867"
         y="0"
         x="0" />
      <use
         id="use3048"
         xlink:href="#use6847"
         y="0"
         x="0" />
      <use
         id="use3050"
         xlink:href="#use6849"
         y="0"
         x="0" />
      <use
         id="use3052"
         xlink:href="#use6851"
         y="0"
         x="0" />
      <use
         id="use3054"
         xlink:href="#use6853"
         y="0"
         x="0" />
    </g>
    <use
       id="use3088"
       xlink:href="#g3072"
       x="0"
       y="0"
       width="744.09448"
       height="1052.3622"
       transform="matrix(-0.99938168,-0.03516041,0.03516041,-0.99938168,667.90353,773.62897)" />
    <path
       sodipodi:type="arc"
       style="fill:#ff9955"
       id="path3090"
       sodipodi:cx="100"
       sodipodi:cy="368.07648"
       sodipodi:rx="42.857143"
       sodipodi:ry="98.571426"
       d="m 142.85714,368.07648 a 42.857143,98.571426 0 1 1 -85.714283,0 42.857143,98.571426 0 1 1 85.714283,0 z"
       transform="matrix(1,0,0,0.75362318,-22,77.828367)" />
    <use
       id="use3092"
       xlink:href="#path3090"
       x="0"
       y="0"
       width="744.09448"
       height="1052.3622"
       transform="translate(528.32987,38.139771)" />
    <flowRoot
       xml:space="preserve"
       id="flowRoot3094"
       style="font-size:30px;font-style:normal;font-weight:normal;line-height:125%;letter-spacing:0px;word-spacing:0px;fill:#000000;fill-opacity:1;stroke:none;font-family:Sans"
       transform="translate(0,44)"><flowRegion
         id="flowRegion3096"><rect
           id="rect3098"
           width="182.85715"
           height="60"
           x="22.857143"
           y="169.50505"
           style="font-size:30px" /></flowRegion><flowPara
         id="flowPara3100">hadron A</flowPara></flowRoot>    <text
       xml:space="preserve"
       style="font-size:40px;font-style:normal;font-weight:normal;line-height:125%;letter-spacing:0px;word-spacing:0px;fill:#000000;fill-opacity:1;stroke:none;font-family:Sans"
       x="688.57141"
       y="218.07648"
       id="text3104"
       sodipodi:linespacing="125%"><tspan
         sodipodi:role="line"
         id="tspan3106"
         x="688.57141"
         y="218.07648" /></text>
    <text
       xml:space="preserve"
       style="font-size:30px;font-style:normal;font-weight:normal;line-height:125%;letter-spacing:0px;word-spacing:0px;fill:#000000;fill-opacity:1;stroke:none;font-family:Sans"
       x="543.62451"
       y="296.74777"
       id="text3108"
       sodipodi:linespacing="125%"><tspan
         sodipodi:role="line"
         id="tspan3110"
         x="543.62451"
         y="296.74777">hadron B</tspan></text>
    <g
       id="g7828">
      <path
         inkscape:connector-curvature="0"
         id="path7248"
         d="m 462.64986,430.10822 -117.17769,0"
         style="fill:none;stroke:#000000;stroke-width:2;stroke-linecap:butt;stroke-linejoin:miter;stroke-opacity:1;stroke-miterlimit:4;stroke-dasharray:none" />
      <path
         inkscape:connector-curvature="0"
         id="path7250"
         d="m 585.88847,430.10822 -125.25891,0"
         style="fill:none;stroke:#000000;stroke-width:2;stroke-linecap:butt;stroke-linejoin:miter;stroke-opacity:1;marker-mid:none;marker-end:url(#Arrow1Lend);stroke-miterlimit:4;stroke-dasharray:none" />
    </g>
    <use
       id="use7832"
       xlink:href="#g7828"
       x="0"
       y="0"
       width="744.09448"
       height="1052.3622"
       transform="matrix(-0.99999731,0.00231844,-0.00231844,-0.99999731,694.59441,756.89943)" />
    <text
       xml:space="preserve"
       style="font-weight:bold;-inkscape-font-specification:Sans Bold;font-size:30px"
       x="210.11172"
       y="284.64624"
       id="text7834"><tspan
         sodipodi:role="line"
         id="tspan7836"
         x="210.11172"
         y="284.64624" /></text>
    <text
       xml:space="preserve"
       x="206.07112"
       y="278.58533"
       id="text7838"><tspan
         sodipodi:role="line"
         id="tspan7840"
         x="206.07112"
         y="278.58533" /></text>
    <text
       xml:space="preserve"
       style="font-size:40px;font-style:normal;font-weight:normal;line-height:125%;letter-spacing:0px;word-spacing:0px;fill:#000000;fill-opacity:1;stroke:none;font-family:Sans"
       x="202.17264"
       y="296.60565"
       id="text7842"
       sodipodi:linespacing="125%"><tspan
         sodipodi:role="line"
         id="tspan7844"
         x="202.17264"
         y="296.60565">x<tspan
   style="font-size:65.00091553%;baseline-shift:sub"
   id="tspan7846">a</tspan></tspan></text>
    <flowRoot
       xml:space="preserve"
       id="flowRoot7848"
       style="font-size:40px;font-style:normal;font-weight:normal;line-height:125%;letter-spacing:0px;word-spacing:0px;fill:#000000;fill-opacity:1;stroke:none;font-family:Sans"
       transform="translate(20,-24)"><flowRegion
         id="flowRegion7850"><rect
           id="rect7852"
           width="70.710678"
           height="66.670067"
           x="438.40619"
           y="460.41278" /></flowRegion><flowPara
         id="flowPara7854">x<flowSpan
   style="font-size:65.00091553%;baseline-shift:sub"
   id="flowSpan7856">b</flowSpan></flowPara></flowRoot>    <text
       xml:space="preserve"
       style="font-size:40px;font-style:normal;font-weight:normal;line-height:125%;letter-spacing:0px;word-spacing:0px;fill:#000000;fill-opacity:1;stroke:none;font-family:Sans"
       x="525.27936"
       y="90.696968"
       id="text7858"
       sodipodi:linespacing="125%"><tspan
         sodipodi:role="line"
         id="tspan7860"
         x="525.27936"
         y="90.696968"
         style="font-size:30px">jet 1</tspan></text>
    <text
       xml:space="preserve"
       style="font-size:30px;font-style:normal;font-weight:normal;line-height:125%;letter-spacing:0px;word-spacing:0px;fill:#000000;fill-opacity:1;stroke:none;font-family:Sans"
       x="222.23355"
       y="634.15906"
       id="text7862"
       sodipodi:linespacing="125%"><tspan
         sodipodi:role="line"
         id="tspan7864"
         x="222.23355"
         y="634.15906">jet 2</tspan></text>
    <path
       style="fill:#241c1c;stroke-width:1;stroke-miterlimit:4;stroke-dasharray:none"
       id="path7908"
       d="m 339.4009,336.50625 c -0.0115,2.91078 0.005,5.82149 0.0132,8.73214 -0.002,0.53655 -0.0829,1.08921 -0.006,1.60963 0.20138,1.35942 1.11168,3.24237 1.81731,4.0258 0.13784,2.18324 -0.0388,1.00129 0.4632,2.90841 0.53362,2.02714 0.69203,2.14464 1.81353,1.26034 0.95725,-0.95054 1.97306,-0.0154 2.95774,-0.28728 0.29005,-0.22948 0.5801,-0.45897 0.87014,-0.68845 0.002,-0.0132 0.004,-0.0265 0.005,-0.0397 0.71983,-2.1831 -0.20098,-1.36737 -0.31224,-2.43311 -0.42081,-4.03088 0.3992,-0.0612 -0.45032,-3.63425 -0.12221,-0.20554 -0.19764,-0.56026 -0.36662,-0.61663 -0.49838,-0.16623 -0.94877,0.61678 -1.43064,0.88894 -0.98388,0.55567 -1.84993,0.59743 -2.87053,0.48212 -0.27357,0.20327 -0.66117,0.182 -0.82072,0.6098 -0.0931,0.24971 0.34682,0.37113 0.34472,0.66647 -0.003,0.4147 -0.26305,0.70433 -0.35714,1.0872 -0.0851,0.3463 -0.0619,0.76399 -0.17664,1.0848 -0.18309,0.51189 -0.52922,0.79934 -0.75703,1.25684 0.0147,2.66772 -1.08202,1.49238 -1.52153,2.87935 -0.10403,0.32826 0.5417,0.15899 0.58249,0.52509 0.0499,0.44749 -0.27003,0.78821 -0.39083,1.19503 -0.12143,0.40895 -0.22353,0.83356 -0.33529,1.25034 -0.0404,0.20878 -0.10873,0.40764 -0.12137,0.62632 -0.0814,1.4078 0.0601,0.15553 0.15775,1.06657 0.14515,1.35354 0.12361,2.76178 0.10329,4.12906 -0.0864,1.81807 -0.0514,3.63865 -0.04,5.45929 -0.002,0.67733 -0.0855,1.36863 -0.005,2.032 0.0303,0.24838 0.93211,3.11253 1.08987,3.1357 0.14323,0.021 0.44413,-0.0819 0.39105,-0.30827 -0.053,-0.22613 -0.27103,0.16149 -0.40654,0.24223 0.42251,-0.0763 0.84594,-0.31855 1.26752,-0.22881 0.29949,0.0637 0.53045,0.49679 0.81404,0.6719 1.04482,0.64514 2.2197,0.70594 3.27891,0.14674 0.72023,-0.22444 -0.0417,-0.0244 0.94987,-0.11222 0.10539,-0.009 -0.26649,0.13422 -0.31632,-0.0234 -0.0637,-0.20151 0.10064,-0.4365 0.0987,-0.66505 -0.007,-0.85763 -0.1855,-1.68644 -0.2823,-2.52834 -0.34802,-0.8354 0.0722,-2.09647 -0.0871,-2.93873 -0.18891,-0.99889 -0.82027,-0.55806 -0.78684,-0.68154 0.079,-0.29186 0.34706,-0.25852 0.52059,-0.38778 -1.28355,1.06783 -2.51517,1.4222 -3.91366,1.09229 -0.10858,-0.0256 0.35273,-0.19504 0.32878,-0.0138 -0.0433,0.3279 -0.28073,0.47488 -0.42109,0.71232 -0.0701,0.11951 -0.11601,0.3053 -0.21039,0.35853 -1.62533,0.91663 -2.29455,0.74673 -3.01234,2.06907 -0.11846,0.21822 0.35001,-0.005 0.52502,-0.008 0.21572,3.13164 -0.88058,5.22687 -0.88485,8.50251 0.58119,0.39975 0.22583,3.70086 0.20568,4.54958 -0.005,0.52837 -0.10438,1.07907 -0.0145,1.5851 0.057,0.32082 0.88632,1.79639 1.11344,1.85844 1.6359,0.44689 -1.66076,-1.5795 1.16553,0.39772 0.76548,1.2623 0.56388,2.6841 0.97468,4.25108 0.37728,1.4391 0.64574,1.205 1.55821,1.00637 0.18862,-0.11462 0.6344,-0.66282 0.56585,-0.34387 -0.0743,0.3459 -0.80428,0.53991 -0.59164,0.46389 0.49067,-0.17541 0.94002,-0.62885 1.43498,-0.76538 0.33466,-0.0923 1.54814,0.5087 1.802,-0.62476 0.0666,-0.29739 -0.37508,0.0325 -0.56262,0.0487 0.52394,-1.8395 0.30397,-3.71934 0.22732,-5.6611 -0.13469,-0.36492 -0.54642,-1.67433 -0.86597,-1.91643 -0.59748,-0.45267 -2.2979,0.53097 -2.95243,0.78247 -0.81088,0.0292 -1.59356,-0.29146 -2.40705,-0.24785 -0.2946,0.0158 -0.4702,0.60319 -0.71512,0.88096 -0.097,0.12536 -0.26385,0.1746 -0.29104,0.37609 -0.0624,0.46223 0.0771,0.94836 0.0487,1.42005 -0.0798,1.3235 -0.59305,2.44597 -0.61726,3.77108 0.46412,1.28984 -0.14865,3.79793 0.16946,4.90359 0.28498,0.99052 1.74155,2.08718 2.16462,2.47017 0.28646,0.15933 0.57292,0.31866 0.85938,0.47799 0.0484,-0.065 0.1698,-0.29076 0.14518,-0.19485 -0.60074,2.3404 -0.82972,1.61719 -0.88128,4.55112 0.31681,2.29084 0.24441,4.52812 0.20191,6.86201 0.88532,-0.59384 -0.35612,1.67562 -0.007,1.83487 0.1377,0.0629 1.98477,-1.14422 2.60745,-1.24537 0.73479,-0.0396 1.88262,0.83831 2.45741,-0.45608 0.10314,-0.23225 -0.26866,-0.48304 -0.24145,-0.76998 0.0421,-0.44427 0.31121,-0.73587 0.42293,-1.1441 0.0939,-0.34302 0.12538,-0.72572 0.18807,-1.08858 0.10195,-1.78995 1.066,-2.4165 0.66614,-4.57604 -0.16316,-0.23189 -0.74447,-1.13912 -1.00866,-1.23271 -0.24507,-0.0868 -2.63764,-0.1705 -2.61091,0.55426 -0.43138,1.1417 -1.30657,2.23921 -2.13853,1.62535 -0.0682,-0.0503 0.77926,-0.52971 0.15264,0.32793 -0.30585,0.41861 -0.67278,0.68982 -1.00917,1.03473 0.004,0.0185 0.009,0.0371 0.0131,0.0556 -0.56394,0.42819 -1.12788,0.85639 -1.69182,1.28458 0.0312,0.0883 0.13205,0.18539 0.0935,0.26494 -0.39268,0.81062 -0.84839,0.76069 -0.69721,2.00909 -0.8163,1.92496 -0.76567,3.07888 -0.55814,5.3689 0.0851,2.13652 -0.031,4.27284 -0.0172,6.41304 0.0194,2.24872 0.0122,4.49765 0.011,6.74645 0.53705,1.30267 0.22992,0.79434 0.87419,1.60275 0,0 -0.70355,0.75269 -0.70355,0.75269 l 0,0 c -0.66374,-0.87559 -0.34283,-0.3307 -0.91209,-1.716 0.007,-2.24826 0.0151,-4.49663 -0.0116,-6.74472 0.001,-2.13323 0.0889,-4.26554 0.0234,-6.39508 -0.19021,-2.08866 -0.32086,-3.69981 0.55667,-5.3576 -0.16068,-1.18454 0.13051,-1.48757 0.66942,-2.14882 0.44307,-0.54366 0.84697,-1.18642 1.31965,-1.6531 0.0798,-0.0788 0.18985,0.14854 0.27308,0.0806 0.49516,-0.40422 0.93883,-0.96877 1.40825,-1.45315 -1.01886,1.17438 -0.0324,-0.75732 0.88155,-1.28827 0.21029,-0.12218 0.49241,-0.15948 0.66541,0.077 0.10138,0.1386 -0.32023,0.63753 -0.30267,0.41887 0.0257,-0.32039 0.22163,-0.52654 0.33245,-0.78981 0.47383,-0.52245 0.91496,-1.14199 1.42152,-1.56737 0.21383,-0.17956 0.46817,-0.15953 0.70435,-0.2178 1.17295,-0.28941 2.16307,-0.33024 2.99503,1.26596 0.23513,1.27363 0.0288,2.36823 -0.37638,3.49932 -0.0842,0.23508 -0.2595,0.3666 -0.32007,0.6217 -0.0396,0.16663 0.0306,0.35545 0.0459,0.53317 -0.34002,2.12709 -1.28262,4.70816 -2.68032,5.10413 -0.5153,0.14599 -1.0438,-0.38389 -1.56281,-0.20276 -0.53078,0.10646 -2.40936,1.28394 -2.68655,1.05094 -0.32605,-0.27406 0.86413,-2.1297 0.0172,-1.84937 0.0473,-2.33029 0.10486,-4.5734 -0.19811,-6.8633 0.008,-1.32845 -0.0325,-3.85634 0.95886,-4.28935 0.0585,-0.0255 -0.11569,0.0589 -0.17354,0.0883 -0.28567,-0.1694 -0.57134,-0.3388 -0.85701,-0.5082 -0.50346,-0.4587 -1.90103,-1.49449 -2.21772,-2.59127 -0.31262,-1.08267 0.29453,-3.61857 -0.18046,-4.89545 -0.005,-1.34212 0.5649,-2.43682 0.62935,-3.76705 0.0249,-0.51435 -0.14636,-1.03242 -0.0923,-1.54032 0.0223,-0.20913 0.19845,-0.26003 0.29768,-0.39005 0.56967,-0.65265 1.63554,-1.91611 2.15325,-2.2091 0.75168,-0.4254 1.63557,0.56075 2.40164,0.21117 0.71904,-0.26494 2.3286,-1.22101 2.99851,-0.66261 0.31769,0.2648 0.76141,1.63932 0.89663,2.00176 0.0747,1.95591 0.31049,3.85372 -0.21133,5.70921 -0.41313,0.70605 -0.90717,1.84984 -1.56584,2.05843 -0.35957,0.11386 -0.7532,0.16196 -1.09702,-0.0496 -0.11504,-0.0708 0.12487,-0.6697 0.006,-0.62186 -0.51808,0.2081 -0.80693,1.33954 -1.41038,1.2702 -0.28557,0.0444 -0.57144,0.18258 -0.85673,0.13309 -1.27113,-0.22048 -0.85869,-4.23424 -1.69984,-5.44508 -0.24843,-0.15634 -0.49686,-0.31268 -0.74529,-0.46902 -0.14797,0.014 -0.30011,0.10279 -0.44392,0.0421 -0.25525,-0.1078 -1.07325,-1.62099 -1.13813,-1.97738 -0.092,-0.50536 0.008,-1.0576 0.0117,-1.58641 0.0256,-1.22487 0.36801,-3.63208 -0.20714,-4.5431 0.005,-1.31814 -0.031,-1.72595 0.21525,-3.19588 0.3018,-1.80175 0.97897,-3.40306 0.65152,-5.35346 0.29743,-0.49098 1.40749,-2.97294 2.30883,-2.80786 0.14686,0.0269 0.0316,0.58216 0.16247,0.69838 0.0897,0.0797 0.14389,-0.24153 0.21584,-0.3623 0.44969,-0.7614 0.93172,-1.65624 1.53326,-2.05359 0.47672,-0.3149 1.02415,0.14029 1.53442,0.0757 0.25719,-0.0326 0.51004,-0.22998 0.76632,-0.18098 0.0884,0.0169 0.10841,0.23907 0.16261,0.35861 0.31266,-0.31992 0.5943,-0.75018 0.93799,-0.95975 1.13457,-0.69182 0.75338,2.943 0.92114,3.77931 0.38316,3.2431 0.59238,4.34481 -1.83981,4.85131 -0.8047,0.35954 -3.64356,0.45223 -4.12492,-0.90488 -0.11476,-0.32356 0.1332,-0.72042 0.1998,-1.08062 -0.46357,0.52317 -0.93198,1.53941 -1.47515,1.33011 -0.34742,-0.13387 -1.0541,-2.85324 -1.103,-3.2371 -0.0839,-0.65832 -0.005,-1.34695 -0.007,-2.02042 -0.0141,-1.82403 -0.05,-3.64682 0.0423,-5.46743 0.0231,-1.33976 0.0561,-2.73291 -0.0921,-4.05878 -0.10723,-0.95982 -0.25089,0.2648 -0.1859,-1.16837 0.0103,-0.2259 0.0835,-0.43048 0.1253,-0.64572 0.4488,-1.70871 1.09858,-2.8423 1.55625,-4.42298 0.0736,-0.25424 -0.38734,0.81205 -0.39242,0.52901 -0.0128,-0.71645 1.03025,-0.8831 0.48748,-1.98548 0.11097,-0.23959 0.20051,-0.51276 0.3329,-0.71878 0.12915,-0.20097 0.34615,-0.23597 0.44114,-0.4857 0.12301,-0.32339 0.0825,-0.76229 0.16889,-1.11808 0.41061,-1.69136 1.16971,-3.3343 2.26051,-3.75028 1.01956,0.0987 1.86784,0.0222 2.84821,-0.53135 0.16511,-0.0932 1.17542,-0.91538 1.49295,-0.76039 0.17464,0.0853 0.24904,0.44848 0.37356,0.67272 0.82738,3.46717 0.0939,-0.14746 0.455,3.5996 0.0911,0.9455 1.07637,0.57329 0.36127,2.643 -0.22542,0.22352 -1.77948,1.90791 -2.31317,2.0416 -0.99597,0.24949 -1.98197,-0.58529 -2.94285,0.3525 -1.15475,0.82929 -1.35986,0.53134 -1.88072,-1.4462 -0.50379,-1.91275 -0.34615,-0.76257 -0.44853,-2.8341 -0.72134,-0.83947 -1.62781,-2.74447 -1.84772,-4.15498 -0.0804,-0.51556 -0.004,-1.06647 -0.006,-1.5997 0.008,-2.91828 0.0247,-5.83661 0.0132,-8.755 0,0 0.71955,-0.62102 0.71955,-0.62102 z"
       inkscape:connector-curvature="0" />
    <text
       xml:space="preserve"
       style="font-size:40px;font-style:normal;font-weight:normal;line-height:125%;letter-spacing:0px;word-spacing:0px;fill:#000000;fill-opacity:1;stroke:none;font-family:Sans"
       x="355.71429"
       y="385.21933"
       id="text7910"
       sodipodi:linespacing="125%"><tspan
         sodipodi:role="line"
         id="tspan7912"
         x="355.71429"
         y="385.21933"
         style="font-size:30px">Q</tspan></text>
  </g>
</svg>
